<svg width="51" height="52" viewBox="0 0 51 52" fill="none" xmlns="http://www.w3.org/2000/svg">
<path d="M26.5847 12.085C27.6396 12.085 28.5947 12.6708 29.1221 13.5356C29.3787 13.9541 29.5498 14.4702 29.507 15.0142C29.4785 15.4327 29.6068 15.8511 29.8349 16.2417C30.5619 17.4273 32.1727 17.8737 33.4271 17.2041C34.8384 16.3951 36.6202 16.8833 37.4328 18.2642L38.3879 19.9102C39.2147 21.2911 38.7585 23.0626 37.333 23.8577C36.1213 24.5691 35.6937 26.1453 36.4207 27.3449C36.6488 27.7215 36.9053 28.0423 37.3045 28.2376C37.8034 28.5026 38.1883 28.9211 38.4591 29.3395C38.9866 30.2043 38.9438 31.2644 38.4306 32.199L37.4328 33.8729C36.9053 34.7656 35.9217 35.3235 34.9096 35.3235C34.4107 35.3235 33.8548 35.184 33.3986 34.9051C33.028 34.6679 32.6003 34.5842 32.1442 34.5842C30.7329 34.5842 29.5498 35.742 29.507 37.1229C29.507 38.727 28.1955 39.9824 26.5562 39.9824H24.6175C22.964 39.9824 21.6525 38.727 21.6525 37.1229C21.624 35.742 20.4408 34.5842 19.0296 34.5842C18.5592 34.5842 18.1315 34.6679 17.7751 34.9051C17.319 35.184 16.7488 35.3235 16.2641 35.3235C15.2378 35.3235 14.2542 34.7656 13.7267 33.8729L12.7431 32.199C12.2157 31.2923 12.1872 30.2043 12.7146 29.3395C12.9427 28.9211 13.3703 28.5026 13.855 28.2376C14.2542 28.0423 14.5107 27.7215 14.7531 27.3449C15.4658 26.1453 15.0382 24.5691 13.8265 23.8577C12.4153 23.0626 11.9591 21.2911 12.7716 19.9102L13.7267 18.2642C14.5535 16.8833 16.3211 16.3951 17.7466 17.2041C18.9868 17.8737 20.5976 17.4273 21.3246 16.2417C21.5527 15.8511 21.681 15.4327 21.6525 15.0142C21.624 14.4702 21.7808 13.9541 22.0516 13.5356C22.5791 12.6708 23.5342 12.1129 24.5748 12.085H26.5847ZM25.6011 22.1001C23.3631 22.1001 21.5527 23.8577 21.5527 26.0476C21.5527 28.2376 23.3631 29.9812 25.6011 29.9812C27.8392 29.9812 29.6068 28.2376 29.6068 26.0476C29.6068 23.8577 27.8392 22.1001 25.6011 22.1001Z" fill="#5D7285"/>
</svg>
