<svg width="51" height="51" viewBox="0 0 51 51" fill="none" xmlns="http://www.w3.org/2000/svg">
<path d="M25.6124 11.2693C33.5352 11.2693 39.5332 17.7652 39.5332 25.1971C39.5332 33.8163 32.503 39.1667 25.5845 39.1667C23.2969 39.1667 20.7582 38.5521 18.7217 37.3507C18.0103 36.9176 17.4105 36.5963 16.6433 36.8478L13.8257 37.6859C13.1143 37.9095 12.4727 37.3507 12.6819 36.5963L13.6165 33.4671C13.7699 33.034 13.742 32.573 13.5188 32.2098C12.3192 30.0026 11.6357 27.5859 11.6357 25.239C11.6357 17.8909 17.5082 11.2693 25.6124 11.2693ZM31.9869 23.4648C30.9966 23.4648 30.2015 24.2611 30.2015 25.2529C30.2015 26.2308 30.9966 27.041 31.9869 27.041C32.9773 27.041 33.7724 26.2308 33.7724 25.2529C33.7724 24.2611 32.9773 23.4648 31.9869 23.4648ZM25.5566 23.4648C24.5802 23.4508 23.7711 24.2611 23.7711 25.239C23.7711 26.2308 24.5662 27.0271 25.5566 27.041C26.5469 27.041 27.342 26.2308 27.342 25.2529C27.342 24.2611 26.5469 23.4648 25.5566 23.4648ZM19.1262 23.4648C18.1358 23.4648 17.3408 24.2611 17.3408 25.2529C17.3408 26.2308 18.1498 27.041 19.1262 27.041C20.1166 27.0271 20.9116 26.2308 20.9116 25.2529C20.9116 24.2611 20.1166 23.4648 19.1262 23.4648Z" fill="#5D7285"/>
</svg>
