<svg width="51" height="52" viewBox="0 0 51 52" fill="none" xmlns="http://www.w3.org/2000/svg">
<path d="M34.7364 28.8045C37.3866 28.8045 39.5332 30.9149 39.5332 33.5187C39.5332 36.1209 37.3866 38.2313 34.7364 38.2313C32.0877 38.2313 29.9396 36.1209 29.9396 33.5187C29.9396 30.9149 32.0877 28.8045 34.7364 28.8045ZM22.9109 31.5083C24.0717 31.5083 25.014 32.4341 25.014 33.5745C25.014 34.7135 24.0717 35.6408 22.9109 35.6408H13.7389C12.5781 35.6408 11.6357 34.7135 11.6357 33.5745C11.6357 32.4341 12.5781 31.5083 13.7389 31.5083H22.9109ZM16.4325 13.4336C19.0828 13.4336 21.2293 15.544 21.2293 18.1463C21.2293 20.75 19.0828 22.8604 16.4325 22.8604C13.7838 22.8604 11.6357 20.75 11.6357 18.1463C11.6357 15.544 13.7838 13.4336 16.4325 13.4336ZM37.4316 16.0815C38.5909 16.0815 39.5332 17.0073 39.5332 18.1463C39.5332 19.2867 38.5909 20.2125 37.4316 20.2125H28.2596C27.0987 20.2125 26.1564 19.2867 26.1564 18.1463C26.1564 17.0073 27.0987 16.0815 28.2596 16.0815H37.4316Z" fill="#5D7285"/>
</svg>
