<svg width="51" height="51" viewBox="0 0 51 51" fill="none" xmlns="http://www.w3.org/2000/svg">
<path d="M21.5882 37.6404V33.3752C21.5882 32.2865 22.4772 31.4039 23.574 31.4039H27.5831C28.1098 31.4039 28.6149 31.6116 28.9873 31.9813C29.3597 32.351 29.5689 32.8524 29.5689 33.3752V37.6404C29.5656 38.093 29.7444 38.5283 30.0656 38.8495C30.3869 39.1708 30.824 39.3514 31.28 39.3514H34.0151C35.2926 39.3547 36.5188 38.8532 37.4233 37.9577C38.3277 37.0621 38.8361 35.8461 38.8361 34.5779V22.4272C38.8361 21.4028 38.3786 20.4312 37.5871 19.7739L28.2825 12.3967C26.6639 11.1033 24.3449 11.145 22.7747 12.4959L13.6824 19.7739C12.8534 20.4118 12.358 21.3864 12.3335 22.4272V34.5655C12.3335 37.2087 14.4919 39.3514 17.1544 39.3514H19.8272C20.7742 39.3514 21.5438 38.5929 21.5507 37.6528L21.5882 37.6404Z" fill="#5D7285"/>
</svg>
