<svg width="51" height="52" viewBox="0 0 51 52" fill="none" xmlns="http://www.w3.org/2000/svg">
<path d="M25.5137 29.6221C30.2998 29.6221 34.3864 30.3808 34.3864 33.4171C34.3864 36.4522 30.326 37.2386 25.5137 37.2386C20.7276 37.2386 16.641 36.4798 16.641 33.4448C16.641 30.4085 20.7014 29.6221 25.5137 29.6221ZM33.166 27.7938C34.9958 27.7598 36.9629 28.0111 37.6898 28.1895C39.2298 28.4922 40.2427 29.1103 40.6624 30.0085C41.0171 30.7459 41.0171 31.6014 40.6624 32.3375C40.0204 33.7307 37.9508 34.1779 37.1465 34.2935C36.9804 34.3186 36.8467 34.1742 36.8642 34.0071C37.2751 30.1467 34.0066 28.3163 33.161 27.8955C33.1248 27.8767 33.1173 27.8478 33.1211 27.8302C33.1236 27.8176 33.1385 27.7975 33.166 27.7938ZM17.66 27.7912L18.0045 27.7943C18.032 27.798 18.0457 27.8181 18.0482 27.8294C18.052 27.8483 18.0445 27.8759 18.0095 27.896C17.1627 28.3168 13.8941 30.1472 14.3051 34.0063C14.3225 34.1747 14.1901 34.3179 14.024 34.294C13.2197 34.1784 11.1502 33.7312 10.5082 32.338C10.1522 31.6006 10.1522 30.7464 10.5082 30.009C10.9278 29.1108 11.9395 28.4927 13.4795 28.1887C14.2076 28.0116 16.1735 27.7603 18.0045 27.7943L17.66 27.7912ZM25.5137 14.9207C28.7723 14.9207 31.3851 17.5462 31.3851 20.8249C31.3851 24.1024 28.7723 26.7305 25.5137 26.7305C22.2551 26.7305 19.6423 24.1024 19.6423 20.8249C19.6423 17.5462 22.2551 14.9207 25.5137 14.9207ZM33.4845 15.9053C36.6319 15.9053 39.1036 18.8838 38.2618 22.2015C37.6936 24.4351 35.6365 25.9187 33.3446 25.8584C33.1148 25.8521 32.8888 25.8308 32.6702 25.7931C32.5116 25.7654 32.4316 25.5858 32.5216 25.4526C33.3958 24.1587 33.8942 22.6023 33.8942 20.9315C33.8942 19.1878 33.3496 17.5623 32.4042 16.2294C32.3742 16.1879 32.3517 16.1239 32.3817 16.0761C32.4067 16.0372 32.4529 16.0171 32.4966 16.007C32.8151 15.9417 33.1423 15.9053 33.4845 15.9053ZM17.6841 15.9052C18.0264 15.9052 18.3536 15.9416 18.6733 16.0069C18.7158 16.017 18.7633 16.0383 18.7882 16.076C18.817 16.1237 18.7957 16.1878 18.7658 16.2293C17.8203 17.5621 17.2757 19.1877 17.2757 20.9313C17.2757 22.6021 17.7741 24.1586 18.6484 25.4525C18.7383 25.5857 18.6583 25.7653 18.4997 25.793C18.2799 25.8319 18.0551 25.852 17.8253 25.8583C15.5334 25.9186 13.4764 24.435 12.9081 22.2014C12.065 18.8837 14.5367 15.9052 17.6841 15.9052Z" fill="#5D7285"/>
</svg>
