<svg width="51" height="51" viewBox="0 0 51 51" fill="none" xmlns="http://www.w3.org/2000/svg">
<path d="M24.8774 11.4666C28.3402 11.4666 31.1644 14.2423 31.1644 17.6598V24.3412H22.6492C22.039 24.3412 21.5564 24.8155 21.5564 25.4153C21.5564 26.0011 22.039 26.4893 22.6492 26.4893H31.1644V33.1568C31.1644 36.5742 28.3402 39.364 24.849 39.364H17.9375C14.4604 39.364 11.6362 36.5882 11.6362 33.1708V17.6737C11.6362 14.2423 14.4746 11.4666 17.9517 11.4666H24.8774ZM34.7077 20.6032C35.1261 20.1708 35.8096 20.1708 36.2281 20.5893L40.3011 24.6484C40.5104 24.8576 40.6219 25.1226 40.6219 25.4156C40.6219 25.6945 40.5104 25.9735 40.3011 26.1688L36.2281 30.2279C36.0189 30.4371 35.7399 30.5487 35.4749 30.5487C35.1959 30.5487 34.9169 30.4371 34.7077 30.2279C34.2892 29.8094 34.2892 29.1259 34.7077 28.7074L36.9395 26.4896H31.1647V24.3415H36.9395L34.7077 22.1237C34.2892 21.7052 34.2892 21.0217 34.7077 20.6032Z" fill="white"/>
</svg>
