<svg width="52" height="52" viewBox="0 0 52 52" fill="none" xmlns="http://www.w3.org/2000/svg">
<circle opacity="0.05" cx="26" cy="26" r="26" fill="#2F5944"/>
<circle cx="26" cy="26" r="15" fill="#2F5944"/>
<path d="M32.2902 19.7214C31.9568 19.3791 31.4632 19.2516 31.003 19.3858L20.272 22.5064C19.7864 22.6413 19.4423 23.0285 19.3496 23.5204C19.2549 24.021 19.5857 24.6566 20.0179 24.9223L23.3732 26.9846C23.7174 27.196 24.1616 27.143 24.4464 26.8557L28.2886 22.9896C28.482 22.7882 28.8021 22.7882 28.9955 22.9896C29.189 23.1842 29.189 23.4996 28.9955 23.7009L25.1466 27.5678C24.8612 27.8543 24.8078 28.3006 25.0179 28.6469L27.0681 32.0359C27.3082 32.4385 27.7217 32.6667 28.1752 32.6667C28.2286 32.6667 28.2886 32.6667 28.3419 32.66C28.8622 32.5929 29.2757 32.2372 29.4291 31.7339L32.6104 21.0166C32.7504 20.5602 32.6237 20.0636 32.2902 19.7214Z" fill="white"/>
</svg>
