<svg width="108" height="107" viewBox="0 0 108 107" fill="none" xmlns="http://www.w3.org/2000/svg">
<g filter="url(#filter0_d_1_2340)">
<rect x="30" y="18" width="48" height="48" rx="20" fill="black"/>
<path fill-rule="evenodd" clip-rule="evenodd" d="M50.4277 33C50.8477 33 51.1887 33.3344 51.1887 33.7472C51.1887 34.1591 50.8487 34.4935 50.4277 34.4935L48.7987 34.4944C47.4467 34.4964 46.3467 35.576 46.3467 36.9028V38.762C46.3467 39.1739 46.0047 39.5092 45.5847 39.5092C45.1647 39.5092 44.8237 39.1739 44.8237 38.762V36.9028C44.8237 34.7533 46.6067 33.0029 48.7977 33.001L50.4267 33H50.4277ZM57.6006 33.0003H59.1936C61.3906 33.0003 63.1766 34.7516 63.1766 36.906V38.7623C63.1766 39.1742 62.8366 39.5095 62.4156 39.5095C61.9956 39.5095 61.6546 39.1742 61.6546 38.7623V36.906C61.6546 35.5754 60.5506 34.4928 59.1936 34.4928H57.6006C57.1806 34.4928 56.8396 34.1594 56.8396 33.7475C56.8396 33.3347 57.1806 33.0003 57.6006 33.0003ZM56.7625 36.7427H51.2385C49.9745 36.7554 48.9585 37.7684 48.9695 39.0088V40.2542C48.9725 40.3993 49.0915 40.518 49.2395 40.5229H58.7595C58.9085 40.5189 59.0275 40.4003 59.0325 40.2542V39.0088C59.0335 38.4097 58.7975 37.8341 58.3715 37.4055C57.9485 36.9809 57.3675 36.7427 56.7625 36.7427ZM43.762 42.0412H64.239C64.659 42.0412 65 42.3756 65 42.7885C65 43.2003 64.659 43.5337 64.239 43.5337H63.177V47.0933C63.177 49.2486 61.39 51 59.194 51H57.601C57.18 51 56.839 50.6656 56.839 50.2528C56.839 49.8409 57.18 49.5065 57.601 49.5065H59.194C60.551 49.5065 61.655 48.4249 61.655 47.0933V43.5337H59.032V44.5251C59.042 45.7656 58.027 46.7795 56.762 46.7913H51.238C49.974 46.7795 48.959 45.7656 48.969 44.5251V43.5337H46.346V47.0972C46.346 48.424 47.447 49.5036 48.8 49.5056L50.428 49.5065C50.848 49.5065 51.189 49.8409 51.189 50.2528C51.188 50.6656 50.848 51 50.427 51L48.798 50.999C46.607 50.9971 44.823 49.2467 44.823 47.0972V43.5337H43.762C43.342 43.5337 43 43.2003 43 42.7885C43 42.3756 43.342 42.0412 43.762 42.0412Z" fill="white"/>
</g>
<defs>
<filter id="filter0_d_1_2340" x="0" y="0" width="108" height="108" filterUnits="userSpaceOnUse" color-interpolation-filters="sRGB">
<feFlood flood-opacity="0" result="BackgroundImageFix"/>
<feColorMatrix in="SourceAlpha" type="matrix" values="0 0 0 0 0 0 0 0 0 0 0 0 0 0 0 0 0 0 127 0" result="hardAlpha"/>
<feOffset dy="12"/>
<feGaussianBlur stdDeviation="15"/>
<feComposite in2="hardAlpha" operator="out"/>
<feColorMatrix type="matrix" values="0 0 0 0 0 0 0 0 0 0 0 0 0 0 0 0 0 0 0.2 0"/>
<feBlend mode="normal" in2="BackgroundImageFix" result="effect1_dropShadow_1_2340"/>
<feBlend mode="normal" in="SourceGraphic" in2="effect1_dropShadow_1_2340" result="shape"/>
</filter>
</defs>
</svg>
